<svg version="1.1" id="Layer_1" xmlns="http://www.w3.org/2000/svg" xmlns:xlink="http://www.w3.org/1999/xlink" x="0px" y="0px"
	 width="100%" viewBox="0 0 479 472" enable-background="new 0 0 479 472" xml:space="preserve">
<path fill="#2B0820" opacity="1.000000" stroke="none" 
	d="
M1.000000,186.000000 
	C1.000000,124.000000 1.000000,62.500000 1.000000,1.000000 
	C160.666672,1.000000 320.333344,1.000000 480.000000,1.000000 
	C480.000000,158.333328 480.000000,315.666656 480.000000,473.000000 
	C320.333344,473.000000 160.666672,473.000000 1.000000,473.000000 
	C1.000000,377.500000 1.000000,282.000000 1.000000,186.000000 
M353.073364,310.507111 
	C353.145721,310.659546 353.218109,310.812012 353.270691,311.803345 
	C353.540527,315.773956 353.769379,319.747833 354.087463,323.714569 
	C355.367310,339.677795 368.522064,348.082062 384.402954,342.471619 
	C376.785828,340.445190 372.212036,335.650452 370.276855,328.742157 
	C369.037720,324.318726 368.489960,319.642639 368.145355,315.041412 
	C367.623627,308.075562 364.460968,303.107697 358.089935,300.332825 
	C355.158112,299.055847 352.059723,298.161163 349.779510,296.925049 
	C362.972870,293.388214 369.624390,285.132751 368.378052,273.841736 
	C367.041077,261.729706 358.911469,254.303284 346.503845,253.859604 
	C356.123016,263.975739 357.145081,283.214935 348.085052,295.506836 
	C347.664948,295.977783 347.244812,296.448730 346.380646,296.878723 
	C345.986145,297.091431 345.591644,297.304169 345.197174,297.516907 
	C345.580475,297.776611 345.963806,298.036316 346.713562,298.896606 
	C348.864288,302.600861 351.014984,306.305084 353.073364,310.507111 
M206.123856,132.710358 
	C199.907074,133.699860 193.711273,135.314377 187.468292,135.524155 
	C179.254395,135.800171 171.726212,132.896912 167.891464,125.152397 
	C164.102402,117.500153 167.754547,110.551598 172.388260,104.394302 
	C175.117050,100.768265 178.460831,97.605049 181.528030,94.233681 
	C175.820053,94.913368 170.221313,95.966209 165.158051,98.221275 
	C152.451508,103.880470 145.393341,115.479698 147.021439,126.885254 
	C148.511795,137.325928 159.398956,146.682053 172.571121,148.749771 
	C185.033997,150.706177 197.166565,148.972565 208.898880,144.738998 
	C225.092773,138.895523 241.043976,132.365677 257.310547,126.741302 
	C274.120270,120.929138 291.211365,115.913170 309.279175,116.110893 
	C317.190491,116.197472 324.618256,117.808098 329.977936,124.537292 
	C328.829163,112.277435 318.854340,110.695412 309.444794,108.078156 
	C312.743561,101.880753 318.185272,99.838577 324.062378,98.255142 
	C325.591187,97.843246 326.856506,96.453255 328.242828,95.512512 
	C327.996490,95.061646 327.750153,94.610779 327.503784,94.159912 
	C314.399628,94.159912 301.295471,94.159912 288.276520,94.159912 
	C286.842285,97.993355 289.689331,97.900101 291.876251,98.465401 
	C298.161102,100.089973 299.903290,102.101295 299.996460,107.940079 
	C277.281952,108.817490 255.741364,115.369614 234.170273,122.482239 
	C232.942978,119.475311 231.978195,117.020828 230.944717,114.595619 
	C226.986526,105.306969 228.806854,101.297935 238.271606,97.974037 
	C239.470566,97.552979 240.317505,96.129524 241.327515,95.170479 
	C241.042007,94.840797 240.756485,94.511124 240.470963,94.181442 
	C222.548050,94.181442 204.625137,94.181442 186.702225,94.181442 
	C186.445633,94.671539 186.189026,95.161644 185.932434,95.651741 
	C187.471024,96.659454 188.888550,98.197159 190.569626,98.581192 
	C197.110550,100.075485 202.326889,103.206596 205.121292,109.484352 
	C208.129822,116.243088 210.907776,123.104462 213.950317,130.309387 
	C211.263184,131.133240 209.091904,131.798935 206.123856,132.710358 
M313.849182,50.720116 
	C238.165878,23.048553 168.385437,33.757305 107.065384,86.101776 
	C57.575630,128.347580 36.261082,183.885605 39.477379,248.764694 
	C41.393002,245.549377 42.568134,242.040863 42.939709,238.449234 
	C44.273800,225.553879 44.172844,212.398758 46.690331,199.755203 
	C62.962975,118.029266 125.055847,57.857044 207.153824,43.765396 
	C244.541565,37.347996 281.314911,40.902191 315.601593,56.763863 
	C392.630493,92.398880 432.419159,153.417267 435.071899,238.458725 
	C435.184235,242.060272 436.604462,245.621002 437.415405,249.200745 
	C437.869446,249.097961 438.323456,248.995178 438.777466,248.892395 
	C445.646942,180.149002 406.883850,88.988159 313.849182,50.720116 
M298.784027,133.319687 
	C300.507996,128.983063 302.231964,124.646423 303.979462,120.250618 
	C298.546509,119.216667 295.738342,120.739693 293.776184,125.835236 
	C286.809113,143.928009 279.272583,161.801956 271.910461,179.741867 
	C269.725159,185.066940 267.404114,190.336288 264.837616,196.352371 
	C256.277252,175.739960 248.177048,156.235474 239.982834,136.504684 
	C232.930649,139.408447 226.565704,142.029236 220.066040,144.705490 
	C220.526031,146.147369 220.792664,147.263550 221.228806,148.309021 
	C230.666412,170.931900 240.375839,193.446930 249.382889,216.239609 
	C251.417786,221.389053 254.646942,220.337067 258.257172,220.806442 
	C262.304169,221.332611 263.658081,219.201782 264.962646,215.981369 
	C276.044220,188.625748 287.250153,161.320465 298.784027,133.319687 
M115.326920,395.088654 
	C152.474792,424.151855 194.816574,438.290649 241.790771,437.684296 
	C286.975281,437.101074 353.606506,411.675079 366.157837,390.442841 
	C362.609375,391.359528 359.112518,392.493805 356.042908,394.338867 
	C350.354156,397.758301 345.031006,401.784515 339.353149,405.223755 
	C304.738373,426.191071 267.045502,435.159149 226.808823,432.780151 
	C187.786331,430.472961 152.695648,416.961212 121.200905,393.842926 
	C118.577560,391.917267 114.983223,391.314392 111.840012,390.096954 
	C111.577766,390.642914 111.315521,391.188904 111.053276,391.734894 
	C112.280426,392.711761 113.507568,393.688660 115.326920,395.088654 
M169.054932,272.500610 
	C169.054932,295.922821 169.054932,319.345062 169.054932,342.842285 
	C174.090805,342.842285 178.637863,342.842285 183.179474,342.842285 
	C183.179474,312.827454 183.179474,283.118134 183.179474,253.447159 
	C178.407883,253.447159 173.962006,253.447159 169.054932,253.447159 
	C169.054932,259.606537 169.054932,265.553741 169.054932,272.500610 
M308.490875,291.499634 
	C308.490875,308.617035 308.490875,325.734467 308.490875,342.815369 
	C313.600922,342.815369 318.160675,342.815369 322.682404,342.815369 
	C322.682404,312.848755 322.682404,283.268951 322.682404,253.487488 
	C317.996216,253.487488 313.570312,253.487488 308.490906,253.487488 
	C308.490906,265.948761 308.490906,278.224182 308.490875,291.499634 
M414.049835,294.500000 
	C414.049835,310.595001 414.049835,326.690033 414.049835,342.845062 
	C419.083527,342.845062 423.630859,342.845062 428.140076,342.845062 
	C428.140076,312.834381 428.140076,283.125732 428.140076,253.456360 
	C423.360321,253.456360 418.918762,253.456360 414.049835,253.456360 
	C414.049835,266.955383 414.049835,280.227692 414.049835,294.500000 
M94.744415,340.038422 
	C96.148735,337.030243 97.751572,334.093597 98.871834,330.983124 
	C99.414543,329.476257 99.656982,327.353882 99.009529,326.001221 
	C87.776833,302.534637 76.405647,279.134155 64.959343,255.770813 
	C64.430916,254.692200 62.963364,253.473038 61.852436,253.389191 
	C57.984066,253.097168 54.080135,253.276276 49.483768,253.276276 
	C64.251884,283.656830 78.613007,313.200134 93.272614,343.357483 
	C93.853867,341.842072 94.090736,341.224548 94.744415,340.038422 
M274.753204,331.995911 
	C275.525238,327.617065 276.913269,323.245392 276.964081,318.858185 
	C277.201416,298.364136 277.074860,277.865845 277.058014,257.369049 
	C277.056946,256.103607 276.881836,254.838303 276.788696,253.586060 
	C271.989227,253.586060 267.574829,253.586060 262.833099,253.586060 
	C262.833099,255.702942 262.833130,257.519196 262.833099,259.335449 
	C262.832611,283.165039 262.776184,306.994904 262.878876,330.824036 
	C262.899353,335.579651 262.015533,339.714294 256.928284,343.033539 
	C265.411591,342.550201 270.788391,339.069702 274.753204,331.995911 
M229.169617,290.500061 
	C229.169617,278.241577 229.169617,265.983124 229.169617,253.518173 
	C224.207352,253.518173 219.799545,253.518173 215.126923,253.518173 
	C215.126923,277.498352 214.677612,301.254578 215.333435,324.980286 
	C215.622528,335.438568 224.550735,342.903931 234.127960,342.495636 
	C229.727859,339.177612 229.038589,334.814972 229.107498,329.930328 
	C229.288193,317.122498 229.169205,304.310486 229.169617,290.500061 
M55.327042,318.238525 
	C61.602959,332.034180 68.747864,345.299988 79.201347,356.673676 
	C78.579453,352.592407 77.398636,348.753021 75.539062,345.276672 
	C72.568619,339.723694 68.939140,334.523895 65.954903,328.977509 
	C56.455177,311.321838 50.156063,292.538025 46.093544,272.909515 
	C45.152233,268.361450 42.494728,264.168610 40.626926,259.812286 
	C40.185684,260.002106 39.744442,260.191925 39.303200,260.381744 
	C42.165073,280.090302 46.768475,299.319366 55.327042,318.238525 
M135.609436,253.408722 
	C131.387177,253.408722 127.164909,253.408722 122.119896,253.408722 
	C124.627403,258.616089 126.831993,263.194397 129.361801,268.448090 
	C131.826279,263.106598 133.888702,258.636505 135.609436,253.408722 
M345.154388,379.993073 
	C350.263031,378.555603 350.390717,378.504303 348.139526,369.529877 
	C347.058929,365.222015 343.605133,367.198853 340.791473,366.932587 
	C340.791473,371.451782 340.791473,375.532776 340.791473,379.796722 
	C342.068695,379.877594 343.193115,379.948822 345.154388,379.993073 
M278.282684,379.683258 
	C278.282684,375.392975 278.282684,371.102692 278.282684,366.812408 
	C277.823029,366.687866 277.363373,366.563324 276.903748,366.438782 
	C275.758850,368.173157 274.613953,369.907562 273.632294,371.394714 
	C272.311249,369.668304 271.032440,367.997070 269.753662,366.325867 
	C269.245667,366.620483 268.737701,366.915070 268.229706,367.209686 
	C269.042908,371.443970 266.959625,376.047668 270.677734,379.986389 
	C270.900726,378.169800 271.123718,376.353241 271.405640,374.056732 
	C272.328796,375.297638 272.892548,376.055420 273.484436,376.851013 
	C274.182007,375.973297 274.819794,375.170837 275.179138,374.718719 
	C275.988922,376.574402 276.741364,378.298767 278.282684,379.683258 
M121.162704,369.637146 
	C121.076347,370.360626 120.989998,371.084106 120.861641,372.159546 
	C119.273880,369.977325 117.955688,368.165558 116.637497,366.353821 
	C116.097595,366.637695 115.557686,366.921570 115.017784,367.205444 
	C115.228256,371.498718 115.438728,375.791992 115.649200,380.085266 
	C116.304420,380.053162 116.959641,380.021057 117.614861,379.988953 
	C117.785103,378.189117 117.955338,376.389282 118.144722,374.386963 
	C119.691734,376.571503 121.093796,378.551361 122.495865,380.531219 
	C122.981537,380.271088 123.467209,380.010925 123.952881,379.750793 
	C123.952881,377.144348 123.952888,374.537903 123.952888,371.931458 
	C123.952888,370.312378 123.952881,368.693298 123.952881,367.074219 
	C123.573364,366.897858 123.193840,366.721497 122.814323,366.545135 
	C122.263916,367.325104 121.713501,368.105072 121.162704,369.637146 
M191.786850,371.866211 
	C191.786850,374.582825 191.786850,377.299469 191.786850,380.016083 
	C192.363785,380.026917 192.940704,380.037720 193.517639,380.048553 
	C193.852371,378.683289 194.187119,377.318024 194.556793,375.810272 
	C196.267380,377.503815 197.717163,378.939178 199.166962,380.374542 
	C199.331375,377.853729 198.074493,376.013489 198.428436,374.567505 
	C200.245697,367.143066 199.725861,366.378784 191.792618,367.175079 
	C191.792618,368.439484 191.792618,369.741821 191.786850,371.866211 
M141.754135,375.845490 
	C142.693954,377.382965 143.633789,378.920441 144.573608,380.457916 
	C144.973633,380.228973 145.373642,380.000061 145.773651,379.771149 
	C145.773651,375.555939 145.773651,371.340729 145.773651,367.125519 
	C145.387024,366.959198 145.000397,366.792877 144.613754,366.626556 
	C143.790466,367.999023 142.967178,369.371521 142.188950,370.668854 
	C141.139816,369.271210 140.083939,367.864594 138.597488,365.884369 
	C136.981201,372.880951 137.358109,377.914154 139.985245,380.629974 
	C139.985245,378.412781 139.965027,376.853973 140.045715,375.300354 
	C140.049698,375.223694 140.933624,375.192719 141.754135,375.845490 
M291.527252,367.040894 
	C289.308807,367.480011 285.327423,367.599731 285.179871,368.414062 
	C284.570221,371.778778 284.341736,375.638275 285.481964,378.765961 
	C286.478485,381.499542 292.701019,380.414246 292.970856,377.505737 
	C293.276123,374.215393 292.474335,370.822327 291.527252,367.040894 
M259.910675,366.840454 
	C257.918793,367.524200 254.357315,367.981140 254.219803,368.932800 
	C253.745712,372.213837 253.849243,375.886139 254.944214,378.980774 
	C255.708160,381.139893 261.430664,380.369507 262.053131,378.041229 
	C263.051025,374.308838 264.278015,370.269684 259.910675,366.840454 
M178.952957,367.090118 
	C178.475662,367.024200 177.998383,366.958282 177.521072,366.892365 
	C177.611313,370.721466 177.477539,374.580780 177.986374,378.353424 
	C178.084641,379.082031 180.774506,380.039429 182.127777,379.855133 
	C183.439575,379.676544 185.471954,378.283051 185.612946,377.215179 
	C186.062576,373.809967 185.779633,370.308044 185.779633,366.843506 
	C185.243484,366.779480 184.707336,366.715454 184.171173,366.651459 
	C183.538391,370.411835 182.905609,374.172211 182.272827,377.932587 
	C181.497559,377.859253 180.722275,377.785950 179.947006,377.712616 
	C179.744339,374.404358 179.541672,371.096069 178.952957,367.090118 
M320.674316,369.313385 
	C320.126526,368.424286 319.578705,367.535187 319.030914,366.646057 
	C318.053955,370.327820 317.569763,373.565247 318.261597,376.528046 
	C318.599152,377.973724 321.060486,379.685455 322.687988,379.828796 
	C324.009033,379.945068 326.509949,378.083405 326.751678,376.777618 
	C327.348206,373.554871 326.947205,370.147491 326.947205,366.814331 
	C326.347015,366.729248 325.746826,366.644135 325.146637,366.559052 
	C324.533203,370.334473 323.919800,374.109863 323.306396,377.885284 
	C322.566437,377.815094 321.826477,377.744904 321.086517,377.674713 
	C320.950287,375.170441 320.814056,372.666138 320.674316,369.313385 
M160.383911,379.351074 
	C159.496170,375.846008 158.681580,372.319519 157.664810,368.852295 
	C157.435410,368.070038 156.501740,367.494324 155.892273,366.823517 
	C155.249405,367.421906 154.244370,367.910706 154.024643,368.637085 
	C152.910645,372.319824 152.000519,376.064178 151.385040,378.398468 
	C154.553452,378.957642 157.200119,379.424744 160.383911,379.351074 
M426.440399,372.119324 
	C425.803619,370.254730 425.166840,368.390106 424.530029,366.525513 
	C423.906952,366.517914 423.283844,366.510315 422.660767,366.502716 
	C421.395294,370.913635 420.129852,375.324585 418.864380,379.735504 
	C422.249878,377.294586 424.905731,376.928436 428.152405,379.821564 
	C427.677704,377.498932 427.203003,375.176300 426.440399,372.119324 
M105.519035,377.804810 
	C106.823105,378.575958 108.127174,379.347076 110.618568,380.820312 
	C109.208893,375.730042 108.150574,371.713928 106.875259,367.767914 
	C106.795410,367.520874 104.248192,367.581299 104.146217,367.906036 
	C102.915817,371.824524 101.929977,375.819824 100.880409,379.795074 
	C101.226151,379.946075 101.571884,380.097046 101.917625,380.248047 
	C102.842201,379.451111 103.766777,378.654205 105.519035,377.804810 
M207.773270,368.170990 
	C206.761124,372.041718 205.748993,375.912445 204.972733,378.881104 
	C208.240967,378.881104 211.046783,378.881104 213.976868,378.881104 
	C213.152298,375.916412 212.283020,372.261536 211.033325,368.741760 
	C210.781708,368.033112 209.086563,367.836975 207.773270,368.170990 
M359.226349,368.928253 
	C360.441254,368.708405 361.656158,368.488586 362.871063,368.268768 
	C362.796234,367.879395 362.721405,367.490051 362.646576,367.100677 
	C360.162262,367.100677 357.677948,367.100677 355.260437,367.100677 
	C355.260437,371.549896 355.260437,375.649658 355.260437,380.182007 
	C358.072357,379.970551 360.559601,379.783539 363.046844,379.596527 
	C363.034668,379.159058 363.022461,378.721619 363.010284,378.284180 
	C361.309753,378.028412 359.609253,377.772644 357.908752,377.516876 
	C357.699982,377.137848 357.491180,376.758820 357.282410,376.379761 
	C358.868561,375.323273 360.454742,374.266754 361.914124,373.294678 
	C361.747742,370.808075 355.516632,373.922028 359.226349,368.928253 
M247.093399,370.807770 
	C247.080673,369.606293 247.067932,368.404846 247.055191,367.203369 
	C244.697052,367.710266 240.733643,367.642548 240.304977,368.840088 
	C239.322266,371.585449 239.641281,375.048523 240.342972,378.003906 
	C240.577957,378.993652 243.601929,379.861084 245.301544,379.777435 
	C246.476059,379.719666 247.565598,377.933929 248.693100,376.920349 
	C248.378448,376.623962 248.063797,376.327606 247.749146,376.031219 
	C246.191330,376.523254 244.633514,377.015289 243.075714,377.507355 
	C242.616211,374.883728 242.156693,372.260132 241.416473,368.033813 
	C243.992767,369.357178 245.192383,369.973358 247.093399,370.807770 
M398.982849,374.332581 
	C399.610809,373.915131 400.238770,373.497711 400.881622,373.070343 
	C399.045593,372.103271 397.643524,371.364777 396.241486,370.626282 
	C397.943146,369.672394 399.644775,368.718506 402.279114,367.241791 
	C398.922729,367.241791 396.526398,367.241791 394.122559,367.241791 
	C394.122559,371.535645 394.122559,375.612183 394.122559,380.141571 
	C396.903015,379.945923 399.384216,379.771301 401.865417,379.596710 
	C401.852325,379.157440 401.839233,378.718170 401.826172,378.278900 
	C400.578033,378.146515 399.301025,378.131836 398.093231,377.835266 
	C397.425873,377.671387 396.874512,377.034912 396.270905,376.611481 
	C396.904785,375.858856 397.538666,375.106232 398.982849,374.332581 
M410.440430,370.783722 
	C409.137054,373.725494 407.833679,376.667297 406.565430,379.529846 
	C409.565399,379.529846 412.034485,379.529846 414.503540,379.529846 
	C414.530029,379.196838 414.556488,378.863831 414.582977,378.530823 
	C413.155823,378.176971 411.728668,377.823090 410.085236,377.415619 
	C411.605011,373.999603 413.104706,370.628784 414.910583,366.569733 
	C411.626587,366.847809 409.281464,367.046356 406.936340,367.244904 
	C406.967773,367.560638 406.999176,367.876404 407.030609,368.192139 
	C408.278076,368.820557 409.525543,369.448975 410.440430,370.783722 
M311.777435,369.069611 
	C311.946320,368.303070 312.115173,367.536560 312.284027,366.770050 
	C310.017731,366.877808 307.751434,366.985596 306.740509,367.033661 
	C307.511108,371.905487 308.164368,376.035461 308.817657,380.165436 
	C309.353180,380.159637 309.888733,380.153809 310.424286,380.148010 
	C310.634674,376.574493 310.845062,373.000946 311.777435,369.069611 
M171.988388,367.151764 
	C169.431076,367.151764 166.873749,367.151764 165.659805,367.151764 
	C166.420212,371.913635 167.077469,376.029541 167.734726,380.145447 
	C168.221359,380.149445 168.707993,380.153442 169.194641,380.157440 
	C169.353287,377.869110 169.236862,375.516205 169.753983,373.311981 
	C170.201172,371.405792 171.367920,369.668365 171.988388,367.151764 
M368.192444,371.833496 
	C368.192444,374.449097 368.192444,377.064697 368.192444,379.523010 
	C371.156036,379.523010 373.578369,379.523010 376.000732,379.523010 
	C376.038239,379.153381 376.075745,378.783722 376.113220,378.414093 
	C374.527588,378.050690 372.941956,377.687286 370.746002,377.184021 
	C370.746002,373.823883 370.746002,370.327820 370.746002,366.831726 
	C370.208557,366.762817 369.671112,366.693939 369.133667,366.625031 
	C368.819916,368.070862 368.506165,369.516693 368.192444,371.833496 
M218.992889,372.714905 
	C218.992889,375.125122 218.992889,377.535370 218.992889,380.243713 
	C222.157837,380.015167 224.543274,379.842896 226.928726,379.670624 
	C226.923050,379.225159 226.917374,378.779694 226.911697,378.334229 
	C225.275070,377.974884 223.638443,377.615540 222.236389,377.307678 
	C220.773712,373.829376 223.393356,369.646210 220.510406,366.820526 
	C220.006607,366.894165 219.502823,366.967834 218.999023,367.041473 
	C218.999023,368.633972 218.999023,370.226440 218.992889,372.714905 
M383.657898,368.924805 
	C383.189545,368.159485 382.721191,367.394135 382.252869,366.628815 
	C381.932709,366.757355 381.612579,366.885895 381.292419,367.014435 
	C381.292419,371.219940 381.292419,375.425446 381.292419,379.571655 
	C383.853668,379.571655 386.285309,379.571655 388.716919,379.571655 
	C388.766693,379.206848 388.816437,378.842072 388.866211,378.477264 
	C387.284515,378.061829 385.702820,377.646362 383.670105,377.112457 
	C383.670105,374.773041 383.670105,372.310944 383.657898,368.924805 
M95.564903,369.253143 
	C96.416908,368.813080 97.268913,368.372986 99.166397,367.392914 
	C95.254623,367.392914 92.688873,367.392914 90.123123,367.392914 
	C95.949287,370.483093 90.996246,376.496918 93.658989,380.033051 
	C94.176544,380.009460 94.694099,379.985870 95.211655,379.962280 
	C95.211655,376.668396 95.211655,373.374481 95.564903,369.253143 
z"/>
<path fill="#FAF9FA" opacity="1.000000" stroke="none" 
	d="
M206.522247,132.587494 
	C209.091904,131.798935 211.263184,131.133240 213.950317,130.309387 
	C210.907776,123.104462 208.129822,116.243088 205.121292,109.484352 
	C202.326889,103.206596 197.110550,100.075485 190.569626,98.581192 
	C188.888550,98.197159 187.471024,96.659454 185.932434,95.651741 
	C186.189026,95.161644 186.445633,94.671539 186.702225,94.181442 
	C204.625137,94.181442 222.548050,94.181442 240.470963,94.181442 
	C240.756485,94.511124 241.042007,94.840797 241.327515,95.170479 
	C240.317505,96.129524 239.470566,97.552979 238.271606,97.974037 
	C228.806854,101.297935 226.986526,105.306969 230.944717,114.595619 
	C231.978195,117.020828 232.942978,119.475311 234.170273,122.482239 
	C255.741364,115.369614 277.281952,108.817490 299.996460,107.940079 
	C299.903290,102.101295 298.161102,100.089973 291.876251,98.465401 
	C289.689331,97.900101 286.842285,97.993355 288.276520,94.159912 
	C301.295471,94.159912 314.399628,94.159912 327.503784,94.159912 
	C327.750153,94.610779 327.996490,95.061646 328.242828,95.512512 
	C326.856506,96.453255 325.591187,97.843246 324.062378,98.255142 
	C318.185272,99.838577 312.743561,101.880753 309.444794,108.078156 
	C318.854340,110.695412 328.829163,112.277435 329.977936,124.537292 
	C324.618256,117.808098 317.190491,116.197472 309.279175,116.110893 
	C291.211365,115.913170 274.120270,120.929138 257.310547,126.741302 
	C241.043976,132.365677 225.092773,138.895523 208.898880,144.738998 
	C197.166565,148.972565 185.033997,150.706177 172.571121,148.749771 
	C159.398956,146.682053 148.511795,137.325928 147.021439,126.885254 
	C145.393341,115.479698 152.451508,103.880470 165.158051,98.221275 
	C170.221313,95.966209 175.820053,94.913368 181.528030,94.233681 
	C178.460831,97.605049 175.117050,100.768265 172.388260,104.394302 
	C167.754547,110.551598 164.102402,117.500153 167.891464,125.152397 
	C171.726212,132.896912 179.254395,135.800171 187.468292,135.524155 
	C193.711273,135.314377 199.907074,133.699860 206.522247,132.587494 
z"/>
<path fill="#F4EFF3" opacity="1.000000" stroke="none" 
	d="
M314.216217,50.841282 
	C406.883850,88.988159 445.646942,180.149002 438.777466,248.892395 
	C438.323456,248.995178 437.869446,249.097961 437.415405,249.200745 
	C436.604462,245.621002 435.184235,242.060272 435.071899,238.458725 
	C432.419159,153.417267 392.630493,92.398880 315.601593,56.763863 
	C281.314911,40.902191 244.541565,37.347996 207.153824,43.765396 
	C125.055847,57.857044 62.962975,118.029266 46.690331,199.755203 
	C44.172844,212.398758 44.273800,225.553879 42.939709,238.449234 
	C42.568134,242.040863 41.393002,245.549377 39.477379,248.764694 
	C36.261082,183.885605 57.575630,128.347580 107.065384,86.101776 
	C168.385437,33.757305 238.165878,23.048553 314.216217,50.841282 
z"/>
<path fill="#FAF9FA" opacity="1.000000" stroke="none" 
	d="
M298.601440,133.659882 
	C287.250153,161.320465 276.044220,188.625748 264.962646,215.981369 
	C263.658081,219.201782 262.304169,221.332611 258.257172,220.806442 
	C254.646942,220.337067 251.417786,221.389053 249.382889,216.239609 
	C240.375839,193.446930 230.666412,170.931900 221.228806,148.309021 
	C220.792664,147.263550 220.526031,146.147369 220.066040,144.705490 
	C226.565704,142.029236 232.930649,139.408447 239.982834,136.504684 
	C248.177048,156.235474 256.277252,175.739960 264.837616,196.352371 
	C267.404114,190.336288 269.725159,185.066940 271.910461,179.741867 
	C279.272583,161.801956 286.809113,143.928009 293.776184,125.835236 
	C295.738342,120.739693 298.546509,119.216667 303.979462,120.250618 
	C302.231964,124.646423 300.507996,128.983063 298.601440,133.659882 
z"/>
<path fill="#F4EFF3" opacity="1.000000" stroke="none" 
	d="
M115.030823,394.877075 
	C113.507568,393.688660 112.280426,392.711761 111.053276,391.734894 
	C111.315521,391.188904 111.577766,390.642914 111.840012,390.096954 
	C114.983223,391.314392 118.577560,391.917267 121.200905,393.842926 
	C152.695648,416.961212 187.786331,430.472961 226.808823,432.780151 
	C267.045502,435.159149 304.738373,426.191071 339.353149,405.223755 
	C345.031006,401.784515 350.354156,397.758301 356.042908,394.338867 
	C359.112518,392.493805 362.609375,391.359528 366.157837,390.442841 
	C353.606506,411.675079 286.975281,437.101074 241.790771,437.684296 
	C194.816574,438.290649 152.474792,424.151855 115.030823,394.877075 
z"/>
<path fill="#FDFBFC" opacity="1.000000" stroke="none" 
	d="
M169.054932,272.000793 
	C169.054932,265.553741 169.054932,259.606537 169.054932,253.447159 
	C173.962006,253.447159 178.407883,253.447159 183.179474,253.447159 
	C183.179474,283.118134 183.179474,312.827454 183.179474,342.842285 
	C178.637863,342.842285 174.090805,342.842285 169.054932,342.842285 
	C169.054932,319.345062 169.054932,295.922821 169.054932,272.000793 
z"/>
<path fill="#FCFAFB" opacity="1.000000" stroke="none" 
	d="
M308.490906,290.999634 
	C308.490906,278.224182 308.490906,265.948761 308.490906,253.487488 
	C313.570312,253.487488 317.996216,253.487488 322.682404,253.487488 
	C322.682404,283.268951 322.682404,312.848755 322.682404,342.815369 
	C318.160675,342.815369 313.600922,342.815369 308.490875,342.815369 
	C308.490875,325.734467 308.490875,308.617035 308.490906,290.999634 
z"/>
<path fill="#FCFCFC" opacity="1.000000" stroke="none" 
	d="
M414.049835,294.000000 
	C414.049835,280.227692 414.049835,266.955383 414.049835,253.456360 
	C418.918762,253.456360 423.360321,253.456360 428.140076,253.456360 
	C428.140076,283.125732 428.140076,312.834381 428.140076,342.845062 
	C423.630859,342.845062 419.083527,342.845062 414.049835,342.845062 
	C414.049835,326.690033 414.049835,310.595001 414.049835,294.000000 
z"/>
<path fill="#F9F7F9" opacity="1.000000" stroke="none" 
	d="
M94.536011,340.322693 
	C94.090736,341.224548 93.853867,341.842072 93.272614,343.357483 
	C78.613007,313.200134 64.251884,283.656830 49.483768,253.276276 
	C54.080135,253.276276 57.984066,253.097168 61.852436,253.389191 
	C62.963364,253.473038 64.430916,254.692200 64.959343,255.770813 
	C76.405647,279.134155 87.776833,302.534637 99.009529,326.001221 
	C99.656982,327.353882 99.414543,329.476257 98.871834,330.983124 
	C97.751572,334.093597 96.148735,337.030243 94.536011,340.322693 
z"/>
<path fill="#FCFBFC" opacity="1.000000" stroke="none" 
	d="
M274.562866,332.326660 
	C270.788391,339.069702 265.411591,342.550201 256.928284,343.033539 
	C262.015533,339.714294 262.899353,335.579651 262.878876,330.824036 
	C262.776184,306.994904 262.832611,283.165039 262.833099,259.335449 
	C262.833130,257.519196 262.833099,255.702942 262.833099,253.586060 
	C267.574829,253.586060 271.989227,253.586060 276.788696,253.586060 
	C276.881836,254.838303 277.056946,256.103607 277.058014,257.369049 
	C277.074860,277.865845 277.201416,298.364136 276.964081,318.858185 
	C276.913269,323.245392 275.525238,327.617065 274.562866,332.326660 
z"/>
<path fill="#FCFBFC" opacity="1.000000" stroke="none" 
	d="
M229.169617,291.000092 
	C229.169205,304.310486 229.288193,317.122498 229.107498,329.930328 
	C229.038589,334.814972 229.727859,339.177612 234.127960,342.495636 
	C224.550735,342.903931 215.622528,335.438568 215.333435,324.980286 
	C214.677612,301.254578 215.126923,277.498352 215.126923,253.518173 
	C219.799545,253.518173 224.207352,253.518173 229.169617,253.518173 
	C229.169617,265.983124 229.169617,278.241577 229.169617,291.000092 
z"/>
<path fill="#FAF8FA" opacity="1.000000" stroke="none" 
	d="
M346.824677,296.919647 
	C347.244812,296.448730 347.664948,295.977783 348.479980,295.830261 
	C348.928864,296.466797 348.982849,296.779968 349.036865,297.093140 
	C352.059723,298.161163 355.158112,299.055847 358.089935,300.332825 
	C364.460968,303.107697 367.623627,308.075562 368.145355,315.041412 
	C368.489960,319.642639 369.037720,324.318726 370.276855,328.742157 
	C372.212036,335.650452 376.785828,340.445190 384.402954,342.471619 
	C368.522064,348.082062 355.367310,339.677795 354.087463,323.714569 
	C353.769379,319.747833 353.540527,315.773956 353.388458,311.274017 
	C353.610565,310.415131 353.497070,310.170013 353.165710,310.009338 
	C351.014984,306.305084 348.864288,302.600861 346.764282,298.499359 
	C346.938934,297.992584 347.183105,297.855438 347.165405,297.778412 
	C347.097260,297.481720 346.945374,297.204254 346.824677,296.919647 
z"/>
<path fill="#F7F5F7" opacity="1.000000" stroke="none" 
	d="
M349.408203,297.009094 
	C348.982849,296.779968 348.928864,296.466797 348.787903,295.684998 
	C357.145081,283.214935 356.123016,263.975739 346.503845,253.859604 
	C358.911469,254.303284 367.041077,261.729706 368.378052,273.841736 
	C369.624390,285.132751 362.972870,293.388214 349.408203,297.009094 
z"/>
<path fill="#F4EEF3" opacity="1.000000" stroke="none" 
	d="
M55.177620,317.890106 
	C46.768475,299.319366 42.165073,280.090302 39.303200,260.381744 
	C39.744442,260.191925 40.185684,260.002106 40.626926,259.812286 
	C42.494728,264.168610 45.152233,268.361450 46.093544,272.909515 
	C50.156063,292.538025 56.455177,311.321838 65.954903,328.977509 
	C68.939140,334.523895 72.568619,339.723694 75.539062,345.276672 
	C77.398636,348.753021 78.579453,352.592407 79.201347,356.673676 
	C68.747864,345.299988 61.602959,332.034180 55.177620,317.890106 
z"/>
<path fill="#EEE9EE" opacity="1.000000" stroke="none" 
	d="
M135.780273,253.787567 
	C133.888702,258.636505 131.826279,263.106598 129.361801,268.448090 
	C126.831993,263.194397 124.627403,258.616089 122.119896,253.408722 
	C127.164909,253.408722 131.387177,253.408722 135.780273,253.787567 
z"/>
<path fill="#F3EAF2" opacity="1.000000" stroke="none" 
	d="
M344.735962,380.006531 
	C343.193115,379.948822 342.068695,379.877594 340.791473,379.796722 
	C340.791473,375.532776 340.791473,371.451782 340.791473,366.932587 
	C343.605133,367.198853 347.058929,365.222015 348.139526,369.529877 
	C350.390717,378.504303 350.263031,378.555603 344.735962,380.006531 
z"/>
<path fill="#DCD0DA" opacity="1.000000" stroke="none" 
	d="
M277.888245,379.853210 
	C276.741364,378.298767 275.988922,376.574402 275.179138,374.718719 
	C274.819794,375.170837 274.182007,375.973297 273.484436,376.851013 
	C272.892548,376.055420 272.328796,375.297638 271.405640,374.056732 
	C271.123718,376.353241 270.900726,378.169800 270.677734,379.986389 
	C266.959625,376.047668 269.042908,371.443970 268.229706,367.209686 
	C268.737701,366.915070 269.245667,366.620483 269.753662,366.325867 
	C271.032440,367.997070 272.311249,369.668304 273.632294,371.394714 
	C274.613953,369.907562 275.758850,368.173157 276.903748,366.438782 
	C277.363373,366.563324 277.823029,366.687866 278.282684,366.812408 
	C278.282684,371.102692 278.282684,375.392975 277.888245,379.853210 
z"/>
<path fill="#DCD0DA" opacity="1.000000" stroke="none" 
	d="
M121.162903,369.261108 
	C121.713501,368.105072 122.263916,367.325104 122.814323,366.545135 
	C123.193840,366.721497 123.573364,366.897858 123.952881,367.074219 
	C123.952881,368.693298 123.952888,370.312378 123.952888,371.931458 
	C123.952888,374.537903 123.952881,377.144348 123.952881,379.750793 
	C123.467209,380.010925 122.981537,380.271088 122.495865,380.531219 
	C121.093796,378.551361 119.691734,376.571503 118.144722,374.386963 
	C117.955338,376.389282 117.785103,378.189117 117.614861,379.988953 
	C116.959641,380.021057 116.304420,380.053162 115.649200,380.085266 
	C115.438728,375.791992 115.228256,371.498718 115.017784,367.205444 
	C115.557686,366.921570 116.097595,366.637695 116.637497,366.353821 
	C117.955688,368.165558 119.273880,369.977325 120.861641,372.159546 
	C120.989998,371.084106 121.076347,370.360626 121.162903,369.261108 
z"/>
<path fill="#F1E9F0" opacity="1.000000" stroke="none" 
	d="
M191.789734,371.455200 
	C191.792618,369.741821 191.792618,368.439484 191.792618,367.175079 
	C199.725861,366.378784 200.245697,367.143066 198.428436,374.567505 
	C198.074493,376.013489 199.331375,377.853729 199.166962,380.374542 
	C197.717163,378.939178 196.267380,377.503815 194.556793,375.810272 
	C194.187119,377.318024 193.852371,378.683289 193.517639,380.048553 
	C192.940704,380.037720 192.363785,380.026917 191.786850,380.016083 
	C191.786850,377.299469 191.786850,374.582825 191.789734,371.455200 
z"/>
<path fill="#F4EFF3" opacity="1.000000" stroke="none" 
	d="
M141.580963,375.492981 
	C140.933624,375.192719 140.049698,375.223694 140.045715,375.300354 
	C139.965027,376.853973 139.985245,378.412781 139.985245,380.629974 
	C137.358109,377.914154 136.981201,372.880951 138.597488,365.884369 
	C140.083939,367.864594 141.139816,369.271210 142.188950,370.668854 
	C142.967178,369.371521 143.790466,367.999023 144.613754,366.626556 
	C145.000397,366.792877 145.387024,366.959198 145.773651,367.125519 
	C145.773651,371.340729 145.773651,375.555939 145.773651,379.771149 
	C145.373642,380.000061 144.973633,380.228973 144.573608,380.457916 
	C143.633789,378.920441 142.693954,377.382965 141.580963,375.492981 
z"/>
<path fill="#E8DBE6" opacity="1.000000" stroke="none" 
	d="
M291.840607,367.257416 
	C292.474335,370.822327 293.276123,374.215393 292.970856,377.505737 
	C292.701019,380.414246 286.478485,381.499542 285.481964,378.765961 
	C284.341736,375.638275 284.570221,371.778778 285.179871,368.414062 
	C285.327423,367.599731 289.308807,367.480011 291.840607,367.257416 
M290.883759,375.095642 
	C290.864471,369.208588 290.864471,369.208588 286.907898,369.520630 
	C286.907898,371.418243 286.742065,373.374817 286.979736,375.281128 
	C287.094086,376.198456 287.969666,377.020905 288.500549,377.886322 
	C289.284790,377.247345 290.069000,376.608368 290.883759,375.095642 
z"/>
<path fill="#E9DFE8" opacity="1.000000" stroke="none" 
	d="
M260.282043,366.923828 
	C264.278015,370.269684 263.051025,374.308838 262.053131,378.041229 
	C261.430664,380.369507 255.708160,381.139893 254.944214,378.980774 
	C253.849243,375.886139 253.745712,372.213837 254.219803,368.932800 
	C254.357315,367.981140 257.918793,367.524200 260.282043,366.923828 
M256.830414,377.601959 
	C257.905243,377.088348 259.883820,376.598633 259.898132,376.057037 
	C259.959229,373.741180 259.440887,371.410034 259.133881,369.084442 
	C258.117828,369.729889 256.395203,370.231567 256.228638,371.049927 
	C255.848557,372.917450 256.230621,374.940094 256.830414,377.601959 
z"/>
<path fill="#E8DBE6" opacity="1.000000" stroke="none" 
	d="
M179.145966,367.438965 
	C179.541672,371.096069 179.744339,374.404358 179.947006,377.712616 
	C180.722275,377.785950 181.497559,377.859253 182.272827,377.932587 
	C182.905609,374.172211 183.538391,370.411835 184.171173,366.651459 
	C184.707336,366.715454 185.243484,366.779480 185.779633,366.843506 
	C185.779633,370.308044 186.062576,373.809967 185.612946,377.215179 
	C185.471954,378.283051 183.439575,379.676544 182.127777,379.855133 
	C180.774506,380.039429 178.084641,379.082031 177.986374,378.353424 
	C177.477539,374.580780 177.611313,370.721466 177.521088,366.892365 
	C177.998383,366.958282 178.475662,367.024200 179.145966,367.438965 
z"/>
<path fill="#DCD0DA" opacity="1.000000" stroke="none" 
	d="
M320.676086,369.737610 
	C320.814056,372.666138 320.950287,375.170441 321.086517,377.674713 
	C321.826477,377.744904 322.566437,377.815094 323.306396,377.885284 
	C323.919800,374.109863 324.533203,370.334473 325.146637,366.559052 
	C325.746826,366.644135 326.347015,366.729248 326.947205,366.814331 
	C326.947205,370.147491 327.348206,373.554871 326.751678,376.777618 
	C326.509949,378.083405 324.009033,379.945068 322.687988,379.828796 
	C321.060486,379.685455 318.599152,377.973724 318.261597,376.528046 
	C317.569763,373.565247 318.053955,370.327820 319.030914,366.646057 
	C319.578705,367.535187 320.126526,368.424286 320.676086,369.737610 
z"/>
<path fill="#E9DFE8" opacity="1.000000" stroke="none" 
	d="
M160.115356,379.621460 
	C157.200119,379.424744 154.553452,378.957642 151.385040,378.398468 
	C152.000519,376.064178 152.910645,372.319824 154.024643,368.637085 
	C154.244370,367.910706 155.249405,367.421906 155.892273,366.823517 
	C156.501740,367.494324 157.435410,368.070038 157.664810,368.852295 
	C158.681580,372.319519 159.496170,375.846008 160.115356,379.621460 
z"/>
<path fill="#ECE2EA" opacity="1.000000" stroke="none" 
	d="
M426.584351,372.486511 
	C427.203003,375.176300 427.677704,377.498932 428.152405,379.821564 
	C424.905731,376.928436 422.249878,377.294586 418.864380,379.735504 
	C420.129852,375.324585 421.395294,370.913635 422.660767,366.502716 
	C423.283844,366.510315 423.906952,366.517914 424.530029,366.525513 
	C425.166840,368.390106 425.803619,370.254730 426.584351,372.486511 
z"/>
<path fill="#ECE2EA" opacity="1.000000" stroke="none" 
	d="
M105.105194,377.831055 
	C103.766777,378.654205 102.842201,379.451111 101.917625,380.248047 
	C101.571884,380.097046 101.226151,379.946075 100.880409,379.795074 
	C101.929977,375.819824 102.915817,371.824524 104.146217,367.906036 
	C104.248192,367.581299 106.795410,367.520874 106.875259,367.767914 
	C108.150574,371.713928 109.208893,375.730042 110.618568,380.820312 
	C108.127174,379.347076 106.823105,378.575958 105.105194,377.831055 
z"/>
<path fill="#ECE2EA" opacity="1.000000" stroke="none" 
	d="
M207.915131,367.787781 
	C209.086563,367.836975 210.781708,368.033112 211.033325,368.741760 
	C212.283020,372.261536 213.152298,375.916412 213.976868,378.881104 
	C211.046783,378.881104 208.240967,378.881104 204.972733,378.881104 
	C205.748993,375.912445 206.761124,372.041718 207.915131,367.787781 
z"/>
<path fill="#E8DBE6" opacity="1.000000" stroke="none" 
	d="
M358.802612,368.984314 
	C355.516632,373.922028 361.747742,370.808075 361.914124,373.294678 
	C360.454742,374.266754 358.868561,375.323273 357.282410,376.379761 
	C357.491180,376.758820 357.699982,377.137848 357.908752,377.516876 
	C359.609253,377.772644 361.309753,378.028412 363.010284,378.284180 
	C363.022461,378.721619 363.034668,379.159058 363.046844,379.596527 
	C360.559601,379.783539 358.072357,379.970551 355.260437,380.182007 
	C355.260437,375.649658 355.260437,371.549896 355.260437,367.100677 
	C357.677948,367.100677 360.162262,367.100677 362.646576,367.100677 
	C362.721405,367.490051 362.796234,367.879395 362.871063,368.268768 
	C361.656158,368.488586 360.441254,368.708405 358.802612,368.984314 
z"/>
<path fill="#ECE2EA" opacity="1.000000" stroke="none" 
	d="
M246.742691,370.698669 
	C245.192383,369.973358 243.992767,369.357178 241.416473,368.033813 
	C242.156693,372.260132 242.616211,374.883728 243.075714,377.507324 
	C244.633514,377.015289 246.191330,376.523254 247.749146,376.031219 
	C248.063797,376.327606 248.378448,376.623962 248.693100,376.920349 
	C247.565598,377.933929 246.476059,379.719666 245.301544,379.777435 
	C243.601929,379.861084 240.577957,378.993652 240.342972,378.003906 
	C239.641281,375.048523 239.322266,371.585449 240.304977,368.840088 
	C240.733643,367.642548 244.697052,367.710266 247.055191,367.203369 
	C247.067932,368.404846 247.080673,369.606293 246.742691,370.698669 
z"/>
<path fill="#F1E9F0" opacity="1.000000" stroke="none" 
	d="
M398.577698,374.343109 
	C397.538666,375.106232 396.904785,375.858856 396.270874,376.611450 
	C396.874512,377.034912 397.425873,377.671387 398.093231,377.835266 
	C399.301025,378.131836 400.578033,378.146515 401.826172,378.278900 
	C401.839233,378.718170 401.852325,379.157440 401.865417,379.596710 
	C399.384216,379.771301 396.903015,379.945923 394.122559,380.141571 
	C394.122559,375.612183 394.122559,371.535645 394.122559,367.241791 
	C396.526398,367.241791 398.922729,367.241791 402.279114,367.241791 
	C399.644775,368.718506 397.943146,369.672394 396.241486,370.626282 
	C397.643524,371.364777 399.045593,372.103271 400.881622,373.070343 
	C400.238770,373.497711 399.610809,373.915131 398.577698,374.343109 
z"/>
<path fill="#ECE2EA" opacity="1.000000" stroke="none" 
	d="
M410.606720,370.430573 
	C409.525543,369.448975 408.278076,368.820557 407.030609,368.192139 
	C406.999176,367.876404 406.967773,367.560638 406.936340,367.244904 
	C409.281464,367.046356 411.626587,366.847809 414.910583,366.569733 
	C413.104706,370.628784 411.605011,373.999603 410.085236,377.415619 
	C411.728668,377.823090 413.155823,378.176971 414.582977,378.530823 
	C414.556488,378.863831 414.530029,379.196838 414.503540,379.529846 
	C412.034485,379.529846 409.565399,379.529846 406.565430,379.529846 
	C407.833679,376.667297 409.137054,373.725494 410.606720,370.430573 
z"/>
<path fill="#DCD0DA" opacity="1.000000" stroke="none" 
	d="
M311.416443,369.248535 
	C310.845062,373.000946 310.634674,376.574493 310.424286,380.148010 
	C309.888733,380.153809 309.353180,380.159637 308.817657,380.165436 
	C308.164368,376.035461 307.511108,371.905487 306.740509,367.033661 
	C307.751434,366.985596 310.017731,366.877808 312.284027,366.770020 
	C312.115173,367.536560 311.946320,368.303070 311.416443,369.248535 
z"/>
<path fill="#DCD0DA" opacity="1.000000" stroke="none" 
	d="
M172.102478,367.504059 
	C171.367920,369.668365 170.201172,371.405792 169.753983,373.311981 
	C169.236862,375.516205 169.353287,377.869110 169.194641,380.157440 
	C168.707993,380.153442 168.221359,380.149445 167.734726,380.145447 
	C167.077469,376.029541 166.420212,371.913635 165.659805,367.151764 
	C166.873749,367.151764 169.431076,367.151764 172.102478,367.504059 
z"/>
<path fill="#E8DBE6" opacity="1.000000" stroke="none" 
	d="
M368.192444,371.398010 
	C368.506165,369.516693 368.819916,368.070862 369.133667,366.625031 
	C369.671112,366.693939 370.208557,366.762817 370.746002,366.831726 
	C370.746002,370.327820 370.746002,373.823883 370.746002,377.184021 
	C372.941956,377.687286 374.527588,378.050690 376.113220,378.414093 
	C376.075745,378.783722 376.038239,379.153381 376.000732,379.523010 
	C373.578369,379.523010 371.156036,379.523010 368.192444,379.523010 
	C368.192444,377.064697 368.192444,374.449097 368.192444,371.398010 
z"/>
<path fill="#E8DBE6" opacity="1.000000" stroke="none" 
	d="
M218.995956,372.266907 
	C218.999023,370.226440 218.999023,368.633972 218.999023,367.041473 
	C219.502823,366.967834 220.006607,366.894165 220.510406,366.820526 
	C223.393356,369.646210 220.773712,373.829376 222.236389,377.307678 
	C223.638443,377.615540 225.275070,377.974884 226.911697,378.334229 
	C226.917374,378.779694 226.923050,379.225159 226.928726,379.670624 
	C224.543274,379.842896 222.157837,380.015167 218.992889,380.243713 
	C218.992889,377.535370 218.992889,375.125122 218.995956,372.266907 
z"/>
<path fill="#E0D4DE" opacity="1.000000" stroke="none" 
	d="
M383.664001,369.386841 
	C383.670105,372.310944 383.670105,374.773041 383.670105,377.112457 
	C385.702820,377.646362 387.284515,378.061829 388.866211,378.477264 
	C388.816437,378.842072 388.766693,379.206848 388.716919,379.571655 
	C386.285309,379.571655 383.853668,379.571655 381.292419,379.571655 
	C381.292419,375.425446 381.292419,371.219940 381.292419,367.014435 
	C381.612579,366.885895 381.932709,366.757355 382.252869,366.628815 
	C382.721191,367.394135 383.189545,368.159485 383.664001,369.386841 
z"/>
<path fill="#F9F7F9" opacity="1.000000" stroke="none" 
	d="
M95.388275,369.666870 
	C95.211655,373.374481 95.211655,376.668396 95.211655,379.962280 
	C94.694099,379.985870 94.176544,380.009460 93.658989,380.033051 
	C90.996246,376.496918 95.949287,370.483093 90.123123,367.392914 
	C92.688873,367.392914 95.254623,367.392914 99.166397,367.392914 
	C97.268913,368.372986 96.416908,368.813080 95.388275,369.666870 
z"/>
<path fill="#F7F5F7" opacity="1.000000" stroke="none" 
	d="
M346.602661,296.899170 
	C346.945374,297.204254 347.097260,297.481720 347.165405,297.778412 
	C347.183105,297.855438 346.938934,297.992584 346.581055,298.199066 
	C345.963806,298.036316 345.580475,297.776611 345.197174,297.516907 
	C345.591644,297.304169 345.986145,297.091431 346.602661,296.899170 
z"/>
<path fill="#F7F5F7" opacity="1.000000" stroke="none" 
	d="
M353.119537,310.258240 
	C353.497070,310.170013 353.610565,310.415131 353.398376,310.854584 
	C353.218109,310.812012 353.145721,310.659546 353.119537,310.258240 
z"/>
<path fill="#2C1121" opacity="1.000000" stroke="none" 
	d="
M290.868469,375.532532 
	C290.069000,376.608368 289.284790,377.247345 288.500549,377.886292 
	C287.969666,377.020905 287.094086,376.198456 286.979736,375.281128 
	C286.742065,373.374817 286.907898,371.418243 286.907898,369.520630 
	C290.864471,369.208588 290.864471,369.208588 290.868469,375.532532 
z"/>
<path fill="#2C1121" opacity="1.000000" stroke="none" 
	d="
M256.566742,377.250854 
	C256.230621,374.940094 255.848557,372.917450 256.228638,371.049927 
	C256.395203,370.231567 258.117828,369.729889 259.133881,369.084442 
	C259.440887,371.410034 259.959229,373.741180 259.898132,376.057037 
	C259.883820,376.598633 257.905243,377.088348 256.566742,377.250854 
z"/>
</svg>