<?xml version="1.0" standalone="no"?>
<!DOCTYPE svg PUBLIC "-//W3C//DTD SVG 20010904//EN"
 "http://www.w3.org/TR/2001/REC-SVG-20010904/DTD/svg10.dtd">
<svg version="1.0" xmlns="http://www.w3.org/2000/svg"
 width="77.000000pt" height="54.000000pt" viewBox="0 0 308.000000 216.000000"
 preserveAspectRatio="xMidYMid meet">



<g transform="translate(0.000000,216.000000) scale(0.100000,-0.100000)"
fill="#000000" stroke="none">
<path d="M1385 1839 c-327 -50 -588 -277 -679 -589 -28 -98 -45 -270 -27 -270
7 0 11 22 11 60 0 34 7 94 15 135 63 304 284 542 582 627 113 32 315 32 426 0
337 -97 570 -382 594 -728 3 -47 11 -87 16 -91 16 -10 0 151 -23 243 -90 350
-397 601 -757 618 -54 3 -125 1 -158 -5z"/>
<path d="M1193 1589 c-42 -21 -73 -66 -73 -107 0 -33 48 -81 93 -93 57 -15
112 -5 265 52 222 82 325 98 376 58 14 -11 26 -16 26 -12 0 17 -40 53 -66 59
-24 6 -24 7 -8 25 9 11 25 19 36 19 10 0 18 5 18 10 0 6 -33 10 -80 10 -44 0
-80 -2 -80 -5 0 -3 11 -10 25 -15 44 -17 30 -37 -31 -45 -31 -4 -92 -17 -135
-30 l-80 -23 -10 25 c-15 41 -11 63 16 73 14 5 25 12 25 15 0 3 -53 5 -117 5
l-118 0 39 -23 c28 -16 45 -36 62 -74 l22 -52 -30 -10 c-51 -18 -112 -13 -142
10 -38 30 -33 72 17 127 27 29 7 29 -50 1z"/>
<path d="M1716 1452 c-10 -26 -39 -96 -64 -156 l-45 -108 -50 118 c-27 66 -51
121 -53 123 -2 2 -21 -4 -42 -13 l-39 -18 63 -151 c59 -143 64 -152 89 -152
23 0 30 7 45 45 10 25 48 116 83 203 53 127 62 157 49 157 -11 0 -24 -18 -36
-48z"/>
<path d="M738 913 c10 -21 50 -102 87 -181 61 -126 71 -141 82 -126 7 10 13
25 13 35 0 9 -32 83 -71 163 -68 138 -73 146 -100 146 l-29 0 18 -37z"/>
<path d="M1032 924 c11 -24 13 -25 25 -8 19 26 16 34 -12 34 -23 0 -24 -2 -13
-26z"/>
<path d="M1210 765 l0 -185 30 0 30 0 0 185 0 185 -30 0 -30 0 0 -185z"/>
<path d="M1402 791 c3 -140 5 -162 22 -180 38 -42 41 -29 38 159 l-3 180 -30
0 -30 0 3 -159z"/>
<path d="M1600 777 c0 -117 -4 -177 -11 -184 -9 -9 -6 -10 10 -6 46 12 56 46
59 210 l4 153 -31 0 -31 0 0 -173z"/>
<path d="M1790 765 l0 -185 30 0 29 0 0 185 -1 185 -29 0 -29 0 0 -185z"/>
<path d="M1968 907 c14 -39 14 -48 -1 -92 -9 -29 -12 -55 -7 -64 4 -9 11 -40
15 -70 9 -69 38 -101 92 -101 37 0 37 1 13 13 -19 9 -29 27 -40 72 -18 73 -25
83 -58 97 -19 7 -23 12 -12 15 35 12 60 47 60 82 -1 40 -14 62 -47 79 -32 17
-32 16 -15 -31z"/>
<path d="M2220 765 l0 -185 30 0 30 0 0 185 0 185 -30 0 -30 0 0 -185z"/>
<path d="M686 885 c14 -101 62 -227 122 -318 43 -65 36 -27 -10 54 -24 41 -54
108 -66 149 -13 41 -30 93 -38 115 l-13 40 5 -40z"/>
<path d="M940 471 c0 -5 -2 -16 -5 -23 -4 -9 1 -14 13 -14 14 0 17 6 14 23 -4
22 -22 33 -22 14z"/>
<path d="M991 451 c0 -14 3 -20 6 -12 5 11 7 11 14 0 6 -10 8 -6 7 12 -3 34
-28 34 -27 0z"/>
<path d="M1080 456 c0 -31 6 -34 13 -6 3 11 1 23 -4 26 -5 3 -9 -6 -9 -20z"/>
<path d="M1106 462 c-4 -13 -5 -26 -2 -29 10 -11 18 4 14 29 l-4 23 -8 -23z"/>
<path d="M1153 467 c3 -10 2 -17 -3 -17 -6 0 -10 -4 -10 -10 0 -5 7 -7 15 -4
18 7 20 30 3 40 -8 5 -9 2 -5 -9z"/>
<path d="M1200 455 c0 -14 2 -25 4 -25 2 0 6 11 8 25 3 14 1 25 -3 25 -5 0 -9
-11 -9 -25z"/>
<path d="M1241 464 c0 -11 3 -14 6 -6 3 7 2 16 -1 19 -3 4 -6 -2 -5 -13z"/>
<path d="M1271 463 c-1 -12 -7 -24 -13 -26 -10 -4 -10 -6 0 -6 15 -1 26 23 19
41 -3 7 -6 3 -6 -9z"/>
<path d="M1323 465 c-7 -8 -13 -16 -13 -19 0 -2 6 -6 13 -9 7 -3 13 5 13 19 1
13 1 24 0 24 0 -1 -7 -7 -13 -15z"/>
<path d="M1373 467 c3 -10 2 -17 -3 -17 -6 0 -10 -4 -10 -8 0 -4 8 -8 19 -8
19 0 18 30 -2 43 -6 4 -8 0 -4 -10z"/>
<path d="M1421 458 c-1 -21 4 -28 17 -28 11 0 13 3 6 8 -7 4 -14 16 -17 27 -4
15 -5 14 -6 -7z"/>
<path d="M1504 465 c-7 -17 3 -35 19 -34 9 0 9 2 0 6 -19 7 -16 31 5 36 16 4
16 5 -1 6 -10 0 -20 -6 -23 -14z"/>
<path d="M1562 458 c3 -25 32 -32 34 -8 0 9 -1 10 -3 3 -7 -21 -26 -14 -20 7
3 11 1 20 -5 20 -5 0 -8 -10 -6 -22z"/>
<path d="M1621 453 c0 -25 1 -26 9 -8 12 27 12 35 0 35 -5 0 -10 -12 -9 -27z"/>
<path d="M1647 465 c-4 -8 -2 -17 3 -20 6 -4 10 3 10 14 0 25 -6 27 -13 6z"/>
<path d="M1691 458 c-1 -19 4 -28 14 -28 8 0 15 5 15 11 0 5 -4 8 -9 4 -5 -3
-12 5 -14 17 -4 20 -4 19 -6 -4z"/>
<path d="M1792 455 c0 -16 2 -22 5 -12 2 9 2 23 0 30 -3 6 -5 -1 -5 -18z"/>
<path d="M1831 458 c-1 -19 4 -28 14 -28 10 0 15 9 14 28 -2 27 -2 27 -7 2
l-5 -25 -8 25 -7 25 -1 -27z"/>
<path d="M1920 458 c0 -18 5 -28 14 -28 20 0 25 11 15 35 -5 13 -8 15 -8 5 -1
-13 -2 -13 -11 0 -8 12 -10 9 -10 -12z"/>
<path d="M1981 458 c-1 -20 4 -28 17 -28 13 0 14 2 4 9 -8 4 -13 11 -12 15 1
4 -1 12 -3 19 -3 6 -6 0 -6 -15z"/>
<path d="M2091 458 c-1 -21 4 -28 17 -28 11 0 13 3 6 8 -7 4 -14 16 -17 27 -4
15 -5 14 -6 -7z"/>
<path d="M2141 458 c-1 -20 4 -28 17 -28 13 0 14 2 4 9 -8 4 -13 11 -12 15 1
4 -1 12 -3 19 -3 6 -6 0 -6 -15z"/>
<path d="M2202 455 c-9 -19 -9 -25 1 -25 6 0 13 11 13 25 2 31 0 31 -14 0z"/>
<path d="M2253 463 c-3 -10 -7 -20 -9 -23 -1 -3 6 -6 17 -6 10 0 19 4 19 8 0
4 -4 8 -10 8 -5 0 -7 7 -4 15 4 8 3 15 0 15 -4 0 -9 -8 -13 -17z"/>
<path d="M1016 352 c75 -54 170 -101 259 -128 122 -36 308 -38 430 -5 94 25
200 74 270 125 59 42 43 49 -18 7 -272 -186 -642 -186 -914 0 -54 37 -78 38
-27 1z"/>
</g>
</svg>
